<?xml version="1.0" encoding="UTF-8" standalone="no"?>
<!DOCTYPE svg PUBLIC "-//W3C//DTD SVG 1.1//EN"
 "http://www.w3.org/Graphics/SVG/1.1/DTD/svg11.dtd">
<!-- Generated by graphviz version 5.0.0 (20220707.1540)
 -->
<!-- Title: dependencies Pages: 1 -->
<svg width="317pt" height="250pt"
 viewBox="0.00 0.00 317.00 249.80" xmlns="http://www.w3.org/2000/svg" xmlns:xlink="http://www.w3.org/1999/xlink">
<g id="graph0" class="graph" transform="scale(1 1) rotate(0) translate(4 245.8)">
<title>dependencies</title>
<polygon fill="white" stroke="transparent" points="-4,4 -4,-245.8 313,-245.8 313,4 -4,4"/>
<text text-anchor="middle" x="154.5" y="-8.2" font-family="sans-serif" font-size="14.00">dependencies</text>
<g id="clust1" class="cluster">
<title>cluster_AppModule</title>
<polygon fill="none" stroke="black" stroke-dasharray="1,5" points="8,-108.8 8,-233.8 282,-233.8 282,-108.8 8,-108.8"/>
</g>
<g id="clust3" class="cluster">
<title>cluster_AppModule_imports</title>
<polygon fill="none" stroke="black" points="154,-116.8 154,-168.8 274,-168.8 274,-116.8 154,-116.8"/>
</g>
<g id="clust6" class="cluster">
<title>cluster_AppModule_providers</title>
<polygon fill="none" stroke="black" points="16,-116.8 16,-168.8 146,-168.8 146,-116.8 16,-116.8"/>
</g>
<g id="clust7" class="cluster">
<title>cluster_UsuarioModule</title>
<polygon fill="none" stroke="black" stroke-dasharray="1,5" points="127,-32.8 127,-100.8 301,-100.8 301,-32.8 127,-32.8"/>
</g>
<g id="clust12" class="cluster">
<title>cluster_UsuarioModule_providers</title>
<polygon fill="none" stroke="black" points="135,-40.8 135,-92.8 293,-92.8 293,-40.8 135,-40.8"/>
</g>
<!-- UsuarioModule -->
<g id="node1" class="node">
<title>UsuarioModule</title>
<polygon fill="#8dd3c7" stroke="black" points="265.88,-160.8 262.88,-164.8 241.88,-164.8 238.88,-160.8 162.12,-160.8 162.12,-124.8 265.88,-124.8 265.88,-160.8"/>
<text text-anchor="middle" x="214" y="-138.6" font-family="Times,serif" font-size="14.00">UsuarioModule</text>
</g>
<!-- AppModule -->
<g id="node2" class="node">
<title>AppModule</title>
<polygon fill="#8dd3c7" stroke="black" points="188.66,-225.8 185.66,-229.8 164.66,-229.8 161.66,-225.8 105.34,-225.8 105.34,-189.8 188.66,-189.8 188.66,-225.8"/>
<text text-anchor="middle" x="147" y="-203.6" font-family="Times,serif" font-size="14.00">AppModule</text>
</g>
<!-- UsuarioModule&#45;&gt;AppModule -->
<g id="edge1" class="edge">
<title>UsuarioModule&#45;&gt;AppModule</title>
<path fill="none" stroke="black" d="M175.45,-160.91C175.45,-160.91 175.45,-179.79 175.45,-179.79"/>
<polygon fill="black" stroke="black" points="171.95,-179.79 175.45,-189.79 178.95,-179.79 171.95,-179.79"/>
</g>
<!-- AppService -->
<g id="node3" class="node">
<title>AppService</title>
<ellipse fill="#fdb462" stroke="black" cx="81" cy="-142.8" rx="56.75" ry="18"/>
<text text-anchor="middle" x="81" y="-138.6" font-family="Times,serif" font-size="14.00">AppService</text>
</g>
<!-- AppService&#45;&gt;AppModule -->
<g id="edge2" class="edge">
<title>AppService&#45;&gt;AppModule</title>
<path fill="none" stroke="black" d="M121.4,-155.64C121.4,-155.64 121.4,-179.32 121.4,-179.32"/>
<polygon fill="black" stroke="black" points="117.9,-179.32 121.4,-189.32 124.9,-179.32 117.9,-179.32"/>
</g>
<!-- UsuarioService -->
<g id="node4" class="node">
<title>UsuarioService</title>
<ellipse fill="#fdb462" stroke="black" cx="214" cy="-66.8" rx="70.63" ry="18"/>
<text text-anchor="middle" x="214" y="-62.6" font-family="Times,serif" font-size="14.00">UsuarioService</text>
</g>
<!-- UsuarioService&#45;&gt;UsuarioModule -->
<g id="edge3" class="edge">
<title>UsuarioService&#45;&gt;UsuarioModule</title>
<path fill="none" stroke="black" d="M214,-84.81C214,-84.81 214,-114.65 214,-114.65"/>
<polygon fill="black" stroke="black" points="210.5,-114.65 214,-124.65 217.5,-114.65 210.5,-114.65"/>
</g>
</g>
</svg>
